Coordinates
version=1
nRows=29
nColumns=24
inDegrees=yes

Units are S.I. units (second, meters, Newtons, ...)
Angles are in degrees.

endheader
time	pelvis_tilt	pelvis_list	pelvis_rotation	pelvis_tx	pelvis_ty	pelvis_tz	hip_flexion_r	hip_adduction_r	hip_rotation_r	knee_angle_r	ankle_angle_r	subtalar_angle_r	mtp_angle_r	hip_flexion_l	hip_adduction_l	hip_rotation_l	knee_angle_l	ankle_angle_l	subtalar_angle_l	mtp_angle_l	lumbar_extension	lumbar_bending	lumbar_rotation
      1.00000000	      4.87945460	     -0.02021717	      0.29271468	      0.59298484	      1.04456157	      0.04550361	     -2.71015996	      1.86736706	     -3.73577500	    -11.65402825	      7.96954244	     -0.00000122	      0.00000000	     18.74350583	     -3.04919094	     -4.14048067	    -57.77191182	      1.43154398	     -0.00000124	      0.00000000	    -16.43665529	      1.07371986	      1.18123281
      1.01700000	      4.92708389	     -0.03363557	      0.04748175	      0.59107456	      1.04448821	      0.04658761	     -4.17428433	      1.97506490	     -3.53637260	    -10.90590463	      8.37402212	     -0.00000116	      0.00000000	     19.43892106	     -3.05539877	     -4.54625133	    -53.50554195	      1.66427753	     -0.00000252	      0.00000000	    -16.56782043	      0.92794427	      1.51554611
      1.03300000	      4.94857784	     -0.24590054	     -0.13451232	      0.58910903	      1.04396627	      0.04777934	     -5.70270531	      2.30437463	     -3.42006508	     -9.97417060	      8.67177196	     -0.00000128	      0.00000000	     19.95502988	     -3.43132036	     -5.28343174	    -48.74642465	      1.61812188	     -0.00000362	      0.00000000	    -16.71574750	      1.03087594	      1.84160941
      1.05000000	      5.09587839	     -0.58052706	     -0.25458343	      0.58716379	      1.04329755	      0.04848385	     -7.33629648	      2.72756442	     -3.33525284	     -9.12437676	      8.97122399	     -0.00000126	      0.00000000	     20.09247039	     -3.93859695	     -6.27389896	    -43.47848194	      1.26795789	     -0.00000495	      0.00000000	    -17.04671069	      1.25997962	      1.98028347
      1.06700000	      4.96678080	     -1.16586244	     -0.53705109	      0.58506436	      1.04159773	      0.04933619	     -8.59295553	      3.37546504	     -3.01994304	     -8.42050690	      9.29326376	     -0.00000122	      0.00000000	     20.36500134	     -4.71846093	     -7.53234927	    -37.96933022	      0.73228362	     -0.00000596	      0.00000000	    -16.89949908	      1.77996770	      2.43065104
      1.08300000	      4.88706534	     -1.56875921	     -0.79396653	      0.58336542	      1.03967702	      0.04962038	     -9.95985509	      3.77108173	     -2.56668436	     -7.69296194	      9.67815931	     -0.00000123	      0.00000000	     20.30679508	     -5.13463242	     -8.86725042	    -32.06235262	     -0.03034602	     -0.00000652	      0.00000000	    -16.96425966	      2.00011585	      2.63736714
      1.10000000	      4.74810172	     -2.13748122	     -1.05999951	      0.58208846	      1.03725556	      0.05012256	    -11.37204922	      4.33547723	     -2.08158935	     -6.83134255	      9.95827989	     -0.00000105	      0.00000000	     20.28433865	     -5.57808167	     -9.87244345	    -26.31098130	     -0.72313443	     -0.00000618	      0.00000000	    -16.83257575	      2.47113024	      3.03563463
      1.11700000	      4.54790519	     -2.61284728	     -1.31187455	      0.58080842	      1.03445545	      0.05034818	    -12.57714176	      4.77401033	     -1.49050288	     -6.30581217	     10.41756806	     -0.00000101	      0.00000000	     20.18935806	     -5.71518817	    -10.27368055	    -20.50319556	     -1.32301237	     -0.00000545	      0.00000000	    -16.71492610	      2.83983063	      3.11695983
      1.13300000	      4.40357332	     -3.16989840	     -1.79699516	      0.57924450	      1.03138867	      0.05032372	    -13.71113065	      5.18714534	     -0.63301986	     -6.04245036	     10.96308514	     -0.00000098	      0.00000000	     20.03483748	     -5.90678184	    -10.10422896	    -15.09384576	     -1.62571659	     -0.00000430	      0.00000000	    -16.69597677	      3.17398473	      3.61024314
      1.15000000	      4.46958794	     -3.67203158	     -2.03172871	      0.57844153	      1.02848348	      0.04983753	    -15.13395818	      5.55659384	     -0.00967445	     -5.71995637	     11.44554889	     -0.00000093	      0.00000000	     19.49683633	     -5.93663245	     -9.08069301	     -9.91132764	     -1.73129801	     -0.00000330	      0.00000000	    -16.81582829	      3.60470010	      3.94905070
      1.16700000	      4.42739666	     -4.01311922	     -2.37660741	      0.57805991	      1.02518761	      0.04966402	    -16.50366609	      5.72648247	      0.54825563	     -5.33711187	     11.89716234	     -0.00000087	      0.00000000	     19.13730617	     -5.95365815	     -7.86269548	     -5.68836253	     -1.52027814	     -0.00000222	      0.00000000	    -16.91733130	      3.63683487	      3.90035894
      1.18300000	      4.54462842	     -4.35645112	     -2.92016605	      0.57751133	      1.02230075	      0.04926007	    -17.78643036	      5.76302068	      1.24465822	     -5.46041607	     12.42719230	     -0.00000070	      0.00000000	     18.68612124	     -6.10401811	     -6.84606408	     -2.58649113	     -1.11940603	     -0.00000144	      0.00000000	    -17.03621727	      3.75435778	      4.53700444
      1.20000000	      4.43705181	     -4.46879509	     -3.19821053	      0.57780782	      1.01926728	      0.04877082	    -18.90239031	      5.65082087	      1.60388729	     -5.47444121	     12.80824302	     -0.00000047	      0.00000000	     18.60829637	     -6.02063757	     -5.86734455	     -0.71900467	     -0.75753840	     -0.00000090	      0.00000000	    -16.92731521	      3.53575823	      4.26133422
      1.21700000	      4.55077328	     -4.58192339	     -3.43267897	      0.57736387	      1.01701283	      0.04797388	    -19.82303539	      5.51364641	      1.95530806	     -6.24721185	     13.29838211	     -0.00000030	      0.00000000	     18.70612001	     -5.97187027	     -5.03587577	     -0.61609191	     -0.41807123	     -0.00000080	      0.00000000	    -17.14178171	      3.30024924	      4.35688722
      1.23300000	      4.64594073	     -4.48789795	     -3.76900759	      0.57769495	      1.01517607	      0.04694520	    -20.60724825	      5.10356651	      2.39864843	     -7.26052162	     13.73057695	      0.00000006	      0.00000000	     18.83096489	     -5.73835943	     -4.55410763	     -1.58721931	     -0.42352590	     -0.00000091	      0.00000000	    -17.18798668	      2.80106683	      4.26758483
      1.25000000	      4.58074490	     -4.30712720	     -4.37019870	      0.57916876	      1.01374172	      0.04531110	    -21.08040847	      4.46557282	      3.04545645	     -8.64163910	     14.03044707	      0.00000042	      0.00000000	     19.10092671	     -5.46850678	     -4.46349179	     -3.46218494	     -0.79363052	     -0.00000118	      0.00000000	    -16.94811359	      2.31347537	      4.51689868
      1.26700000	      4.43378438	     -4.03925744	     -4.41870451	      0.58130031	      1.01239129	      0.04343578	    -21.25880296	      3.98158237	      3.16097105	    -10.45423323	     14.25584031	      0.00000084	      0.00000000	     19.66100673	     -4.99137699	     -3.98685481	     -6.04048803	     -1.55950233	     -0.00000147	      0.00000000	    -16.48026044	      1.75727072	      4.33158793
      1.28300000	      4.21641250	     -4.15524701	     -4.62944031	      0.58223785	      1.01141490	      0.04208427	    -20.89573294	      3.88678310	      3.46967398	    -13.07804131	     14.27813031	      0.00000135	      0.00000000	     20.22572804	     -5.01960490	     -3.73605299	     -8.61169602	     -2.66779006	     -0.00000172	      0.00000000	    -16.25045948	      1.44261192	      4.26742877
      1.30000000	      4.10517513	     -3.98194279	     -4.85732691	      0.58474071	      1.01119861	      0.04048362	    -20.69191796	      3.44696065	      3.61610724	    -15.61841127	     13.78609492	      0.00000191	      0.00000000	     20.57284668	     -4.77592480	     -3.74247721	    -11.26081163	     -3.52039433	     -0.00000194	      0.00000000	    -15.86925752	      0.76332091	      4.16549758
      1.31700000	      4.22239825	     -3.71138279	     -5.03174893	      0.58773759	      1.01181987	      0.03864627	    -20.17597483	      2.92101184	      3.63047068	    -19.16858889	     12.98040043	      0.00000257	      0.00000000	     20.51209812	     -4.41874409	     -3.87064784	    -13.71238178	     -4.02961316	     -0.00000209	      0.00000000	    -15.68969054	      0.02291020	      3.85566852
      1.33300000	      4.42199703	     -3.42756703	     -5.09057124	      0.59091377	      1.01297764	      0.03659036	    -19.23459112	      2.40215914	      3.31807007	    -23.53223918	     11.59488235	      0.00000325	      0.00000000	     20.19488365	     -4.01337567	     -3.97310041	    -15.92573663	     -4.11600245	     -0.00000216	      0.00000000	    -15.52766822	     -0.69770938	      3.62859777
      1.35000000	      4.87553909	     -3.04387986	     -5.00881157	      0.59424485	      1.01492111	      0.03399195	    -18.01144178	      1.70793192	      2.45987194	    -28.63675126	      9.32335877	      0.00000404	      0.00000000	     19.34422426	     -3.42162637	     -4.01763513	    -17.70086761	     -3.86146248	     -0.00000229	      0.00000000	    -15.60847104	     -1.44700889	      3.28472117
      1.36700000	      5.17519104	     -2.59891815	     -4.78784879	      0.59728529	      1.01679700	      0.03065340	    -16.01567969	      0.81182266	      1.01509612	    -34.44664896	      6.02218680	      0.00000457	      0.00000000	     18.43236504	     -2.70404538	     -4.01357614	    -19.03094770	     -3.33226654	     -0.00000232	      0.00000000	    -15.57660005	     -2.13334488	      2.76429454
      1.38300000	      5.33427571	     -2.05571897	     -4.63592521	      0.59966886	      1.01854335	      0.02699533	    -13.34098297	     -0.47852305	     -0.77011297	    -40.62804819	      1.82725742	      0.00000462	      0.00000000	     17.43631983	     -1.88433248	     -4.11395675	    -19.89133956	     -2.58645249	     -0.00000227	      0.00000000	    -15.50431021	     -2.81992985	      2.38897493
      1.40000000	      5.40617814	     -1.49091144	     -4.46899670	      0.60130041	      1.02025188	      0.02343117	    -10.34954793	     -1.99132272	     -2.57148904	    -46.56721299	     -2.72835991	      0.00000361	      0.00000000	     16.41869656	     -1.02536143	     -4.15844343	    -20.47843778	     -1.64558751	     -0.00000214	      0.00000000	    -15.30465994	     -3.49003631	      1.69149682
      1.41700000	      5.63169967	     -0.90496670	     -4.37942241	      0.60262512	      1.02271349	      0.01969290	     -7.55881281	     -3.66525981	     -4.03945772	    -51.81710219	     -6.65963523	      0.00000155	      0.00000000	     14.86764500	     -0.09041976	     -4.28411874	    -20.32452880	     -0.77331750	     -0.00000205	      0.00000000	    -15.42815762	     -4.12711597	      1.17616703
      1.43300000	      5.77893162	     -0.24573048	     -4.55312292	      0.60245996	      1.02492870	      0.01634779	     -4.51404885	     -5.32334530	     -4.71114241	    -56.78952767	     -8.77092834	     -0.00000086	      0.00000000	     13.35117761	      0.87390820	     -4.62120087	    -19.91623358	      0.03496114	     -0.00000209	      0.00000000	    -15.50557458	     -4.79973711	      0.91101425
      1.45000000	      5.97865508	      0.20003563	     -4.71994020	      0.60199136	      1.02758091	      0.01303603	     -1.67233356	     -6.51807626	     -4.87895454	    -61.05712506	     -8.86947882	     -0.00000335	      0.00000000	     11.70331141	      1.65405729	     -4.85137095	    -19.34833266	      0.79993716	     -0.00000206	      0.00000000	    -15.57533117	     -5.15748139	      0.67810355
      1.46700000	      6.00809855	      0.10093132	     -4.18628682	      0.60241963	      1.03084356	      0.00953302	      0.78577588	     -6.79584250	     -5.46312733	    -64.17463050	     -7.57703673	     -0.00000541	      0.00000000	     10.09074764	      1.94556302	     -4.29311157	    -18.61797438	      1.51076462	     -0.00000184	      0.00000000	    -15.54827283	     -4.80922841	     -0.32335351
